<svg version="1.1" id="Layer_1" xmlns="http://www.w3.org/2000/svg" xmlns:xlink="http://www.w3.org/1999/xlink" x="0px" y="0px"
	 width="100%" viewBox="0 0 391 391" enable-background="new 0 0 391 391" xml:space="preserve">
<path fill="#322F31" opacity="1.000000" stroke="none" 
	d="
M212.000000,392.000000 
	C185.979111,392.000000 159.958206,392.000000 133.457260,391.646454 
	C132.317184,389.586029 131.657181,387.879181 131.416168,386.097778 
	C133.272491,385.943329 134.709808,385.863464 135.992188,385.792175 
	C135.992188,380.530640 135.992188,375.628998 135.992188,370.142944 
	C123.750206,370.142944 111.887390,370.142944 99.860237,370.142944 
	C99.860237,348.944061 99.798882,328.348877 99.921761,307.754791 
	C99.941803,304.395050 99.054672,302.811249 95.473694,303.020111 
	C91.995102,303.223022 88.488914,303.196960 85.007011,303.024994 
	C81.970184,302.875000 80.974724,304.000305 81.049698,307.076691 
	C81.211433,313.713257 80.982567,320.359375 80.578056,326.939484 
	C78.809822,325.552551 77.053848,324.445251 75.993584,322.869720 
	C63.580608,304.424530 50.582558,286.323792 39.134621,267.292572 
	C28.199432,249.113754 18.970022,229.912613 8.843853,211.240540 
	C6.539779,206.991943 3.630645,203.071487 1.000002,199.000000 
	C1.000000,142.645767 1.000000,86.291542 1.348320,29.578300 
	C2.357081,30.680750 3.276972,32.080948 3.638748,33.612942 
	C8.479881,54.113483 12.420167,74.870003 18.255104,95.080551 
	C24.186598,115.625542 31.258680,135.917725 39.146400,155.798843 
	C46.299412,173.828110 54.528210,191.520050 63.553661,208.692749 
	C73.342178,227.317352 84.542603,245.203873 95.314262,263.300964 
	C96.276047,264.916809 98.612625,265.714355 100.563812,267.128784 
	C102.912918,272.497711 105.008919,277.629730 106.966431,283.079285 
	C105.815308,286.457092 107.010551,288.252716 110.297699,289.217377 
	C112.376076,290.197510 114.193863,290.959595 116.053825,292.084167 
	C125.059692,303.923004 133.953659,315.455322 143.069870,326.809204 
	C144.295166,328.335205 146.641068,328.961487 148.536835,330.467987 
	C148.605576,349.160339 148.605576,367.389130 148.605576,385.675354 
	C155.063385,385.675354 160.955582,385.675354 167.615524,385.675354 
	C167.615524,380.911346 167.615524,376.464600 167.940811,372.038696 
	C172.278595,375.307465 176.225311,378.642029 180.334808,381.762177 
	C182.063492,383.074677 184.136200,383.934113 186.340393,385.310364 
	C192.707977,385.730042 198.787659,385.838867 205.224564,386.008179 
	C207.721176,388.045807 209.860580,390.022888 212.000000,392.000000 
z"/>
<path fill="#353234" opacity="1.000000" stroke="none" 
	d="
M100.310699,266.891907 
	C98.612625,265.714355 96.276047,264.916809 95.314262,263.300964 
	C84.542603,245.203873 73.342178,227.317352 63.553661,208.692749 
	C54.528210,191.520050 46.299412,173.828110 39.146400,155.798843 
	C31.258680,135.917725 24.186598,115.625542 18.255104,95.080551 
	C12.420167,74.870003 8.479881,54.113483 3.638748,33.612942 
	C3.276972,32.080948 2.357081,30.680750 1.348320,29.109642 
	C1.000000,19.723753 1.000000,10.447505 1.000000,1.000000 
	C15.353843,1.000000 29.708263,1.000000 44.531342,1.448797 
	C46.054569,11.112368 46.646141,20.410912 48.293964,29.518347 
	C49.941044,38.621647 52.449272,47.587955 54.924683,56.518780 
	C60.669994,77.246780 65.890945,98.162758 72.723694,118.533203 
	C78.190094,134.830170 84.964127,150.804596 92.523254,166.254074 
	C101.918663,185.456573 112.580246,204.049179 123.009613,222.729507 
	C125.669708,227.494080 129.517761,231.595383 132.826920,236.360779 
	C128.832596,247.661484 124.831345,258.602844 120.830101,269.544220 
	C119.214554,268.568146 118.865059,267.883087 118.608513,267.164825 
	C112.857956,251.064468 107.152908,234.947632 101.318741,218.877686 
	C100.758865,217.335510 99.489929,214.960419 98.409531,214.880829 
	C92.881432,214.473557 87.307213,214.692505 81.065468,214.692505 
	C82.560425,219.071732 83.645432,222.518951 84.907570,225.900055 
	C90.012299,239.575073 95.171570,253.229736 100.310699,266.891907 
z"/>
<path fill="#373436" opacity="1.000000" stroke="none" 
	d="
M132.820007,236.001434 
	C129.517761,231.595383 125.669708,227.494080 123.009613,222.729507 
	C112.580246,204.049179 101.918663,185.456573 92.523254,166.254074 
	C84.964127,150.804596 78.190094,134.830170 72.723694,118.533203 
	C65.890945,98.162758 60.669994,77.246780 54.924683,56.518780 
	C52.449272,47.587955 49.941044,38.621647 48.293964,29.518347 
	C46.646141,20.410912 46.054569,11.112368 45.000000,1.448797 
	C58.687561,1.000000 72.375122,1.000000 86.551117,1.409206 
	C88.828651,11.770559 90.398766,21.768080 92.449547,31.666006 
	C97.747284,57.235069 104.835632,82.313248 113.827499,106.836327 
	C115.473572,111.325592 117.454582,115.692032 119.056213,120.386749 
	C117.775703,121.401253 116.400772,121.924461 115.714417,122.921623 
	C109.925644,131.331894 108.818123,140.635529 111.319328,150.323944 
	C111.620766,151.491577 114.467888,152.913284 115.923187,152.708801 
	C121.271973,151.957230 126.531425,150.569824 131.897232,149.809814 
	C135.860214,157.891159 139.369415,165.807449 143.716141,173.233475 
	C154.372971,191.439743 165.360748,209.453735 176.368042,227.451706 
	C177.885941,229.933609 180.270981,231.885193 182.213959,234.460449 
	C181.504684,236.421219 180.790192,237.986191 180.174576,239.589157 
	C174.976639,253.123672 169.796753,266.665161 164.270142,280.057190 
	C160.273117,275.604584 156.610336,271.305298 152.963928,266.992126 
	C150.037964,263.531158 147.661911,259.224823 142.026230,259.630859 
	C147.463303,244.725830 152.904541,230.191040 158.594589,214.991592 
	C153.007843,214.991592 148.541275,215.151459 144.093002,214.935089 
	C141.154190,214.792145 139.700745,215.665573 138.822174,218.667786 
	C137.106918,224.529205 134.851669,230.232605 132.820007,236.001434 
z"/>
<path fill="#434142" opacity="1.000000" stroke="none" 
	d="
M392.000000,138.000000 
	C392.000000,159.020889 392.000000,180.041794 391.636169,201.518311 
	C385.340790,197.557556 378.731537,193.807556 373.607727,188.596863 
	C359.576385,174.327499 345.323120,160.130417 332.742584,144.619324 
	C318.765350,127.386223 306.130096,109.006622 296.721619,88.666954 
	C295.405090,85.820770 292.865753,83.540192 290.739075,80.639175 
	C289.743866,73.276321 287.557556,66.821701 282.883484,60.986801 
	C282.768250,59.770351 282.738708,58.924370 282.483795,58.152840 
	C277.772461,43.893967 273.078003,29.629040 268.226013,15.417955 
	C267.796661,14.160432 266.302948,13.266295 265.204559,11.845629 
	C265.248657,6.584383 263.003265,4.234201 257.996735,4.453189 
	C257.998566,3.046343 257.999268,2.023171 258.000000,1.000000 
	C276.687561,1.000000 295.375122,1.000000 314.535431,1.411724 
	C315.608490,4.740582 315.866272,7.781427 316.867584,10.553706 
	C321.538910,23.486843 325.487091,36.794708 331.446625,49.121166 
	C339.445953,65.666733 348.248108,81.956413 358.223633,97.373718 
	C366.654541,110.403725 377.197906,122.074448 386.942169,134.237930 
	C388.213104,135.824432 390.294159,136.761917 392.000000,138.000000 
z"/>
<path fill="#3A3739" opacity="1.000000" stroke="none" 
	d="
M182.254578,234.082291 
	C180.270981,231.885193 177.885941,229.933609 176.368042,227.451706 
	C165.360748,209.453735 154.372971,191.439743 143.716141,173.233475 
	C139.369415,165.807449 135.860214,157.891159 132.157913,149.627350 
	C142.433167,142.691269 146.165466,132.574860 143.555069,119.558998 
	C142.861588,116.101219 141.184723,114.271309 137.839020,115.056129 
	C131.600708,116.519501 125.461464,118.405220 119.280991,120.115166 
	C117.454582,115.692032 115.473572,111.325592 113.827499,106.836327 
	C104.835632,82.313248 97.747284,57.235069 92.449547,31.666006 
	C90.398766,21.768080 88.828651,11.770559 87.019775,1.409206 
	C100.687561,1.000000 114.375122,1.000000 128.600189,1.397481 
	C129.431351,3.591252 129.542938,5.441438 130.055466,7.172952 
	C131.231308,11.145480 132.602646,15.060143 133.852112,19.358208 
	C132.075134,26.636097 130.340698,33.554081 128.440186,41.134476 
	C117.739456,44.436192 111.256775,53.664478 105.613045,63.868256 
	C103.697411,67.331680 104.348961,69.610329 107.473206,71.850082 
	C118.021568,79.412163 129.144394,84.847458 143.544815,81.849602 
	C142.188797,84.072548 141.278580,85.596901 140.337219,87.101776 
	C137.603745,91.471558 134.764938,95.780067 132.194885,100.243568 
	C131.679901,101.137962 132.169617,102.610847 132.196075,103.817001 
	C133.475204,103.473877 135.021759,103.461983 135.963730,102.701363 
	C137.067993,101.809723 137.647934,100.267746 138.452393,99.005997 
	C141.412521,94.363205 144.371475,89.719658 146.837097,85.851128 
	C150.673264,91.680901 154.356903,97.278893 158.033600,103.284195 
	C158.664856,106.085144 158.969849,108.632912 159.994339,110.847870 
	C167.675186,127.453918 174.819382,144.359650 183.479263,160.446045 
	C191.180939,174.752533 200.109741,188.478363 209.416351,201.819077 
	C219.287781,215.969452 230.162659,229.426559 240.800003,243.029495 
	C242.666412,245.416245 245.521317,247.029968 248.010010,249.461685 
	C248.107529,259.587708 248.117935,269.252747 248.121216,278.917786 
	C248.125610,291.900574 248.120224,291.782593 261.175751,291.449310 
	C264.575806,291.362549 265.423370,290.087921 265.331909,286.974701 
	C265.195221,282.322754 265.438263,277.659607 265.868958,273.006500 
	C267.655884,273.684814 269.336304,274.076843 270.492981,275.075470 
	C279.549622,282.894562 288.539551,290.792450 297.451233,298.776276 
	C298.591675,299.797974 299.163483,301.454437 299.540222,302.920776 
	C286.622467,303.039368 274.157318,303.278931 261.706848,302.953949 
	C256.970337,302.830322 254.453461,303.876038 254.670013,308.944000 
	C247.572464,303.839478 240.785339,298.823456 236.321045,291.449310 
	C236.673981,289.803589 237.180649,288.192993 236.705246,286.961517 
	C228.817093,266.528107 220.985901,246.069199 212.753265,225.773651 
	C207.931900,213.887711 207.616989,213.905563 194.615387,214.787491 
	C192.934052,214.901550 190.692825,216.433746 189.880783,217.939789 
	C187.060410,223.170563 184.755539,228.679291 182.254578,234.082291 
M183.581192,181.847824 
	C182.413986,177.718231 181.796036,173.326416 179.973740,169.509598 
	C175.049927,159.196625 158.568970,153.618698 148.422714,158.670135 
	C147.214417,159.271713 146.128464,161.553558 146.174408,163.019302 
	C146.668564,178.787369 152.958450,193.865311 176.464233,191.125580 
	C184.108795,190.234558 184.109680,190.242111 183.581192,181.847824 
z"/>
<path fill="#3E3B3D" opacity="1.000000" stroke="none" 
	d="
M392.000000,260.000000 
	C392.000000,278.687561 392.000000,297.375122 391.632874,316.517883 
	C388.195923,315.428253 384.918121,314.192230 382.089966,312.288330 
	C364.033478,300.132751 346.045990,287.873596 328.121307,275.524384 
	C325.713806,273.865692 323.936859,271.312347 321.596039,269.530396 
	C319.301758,267.783875 316.660431,266.493286 314.096863,264.539001 
	C314.022308,247.834671 314.022308,231.593933 314.022308,215.405289 
	C307.904938,215.405289 302.528625,215.405289 296.785156,215.405289 
	C296.785156,229.857986 296.785156,243.899200 296.785156,259.081818 
	C295.056976,256.740112 294.018524,255.307098 292.953583,253.894073 
	C284.948700,243.272690 276.834961,232.731140 268.974792,222.003799 
	C265.180084,216.824890 260.743164,213.501740 254.077789,214.160904 
	C255.889206,211.186493 255.459488,209.250473 253.365448,206.547821 
	C249.740692,201.869553 247.066315,196.454910 244.374329,191.332489 
	C246.068466,190.439850 247.773758,189.839981 248.621246,188.636200 
	C251.192581,184.983871 254.164276,181.354843 255.609787,177.235886 
	C257.300323,172.418594 260.027557,172.035873 264.466614,171.934250 
	C270.849304,171.788162 277.236786,170.494446 283.543213,169.280029 
	C285.227539,168.955688 286.624084,167.136871 288.507751,166.019043 
	C290.105530,166.997162 291.545502,167.788086 292.560944,168.950043 
	C303.877747,181.899689 314.330994,195.725830 326.606262,207.684372 
	C340.940277,221.648529 356.667328,234.217804 372.165985,246.933975 
	C378.253082,251.928268 385.358398,255.681564 392.000000,260.000000 
z"/>
<path fill="#413E40" opacity="1.000000" stroke="none" 
	d="
M392.000000,259.531342 
	C385.358398,255.681564 378.253082,251.928268 372.165985,246.933975 
	C356.667328,234.217804 340.940277,221.648529 326.606262,207.684372 
	C314.330994,195.725830 303.877747,181.899689 292.560944,168.950043 
	C291.545502,167.788086 290.105530,166.997162 288.424683,165.600952 
	C287.062805,155.805832 284.335968,147.031693 279.452087,139.494690 
	C282.951538,133.960693 286.180817,128.781982 289.487701,123.653351 
	C291.274780,120.881767 290.924774,118.536392 288.033173,116.996597 
	C281.067993,113.287567 274.014252,109.744858 266.984497,105.750656 
	C266.790894,104.560654 266.748291,103.689728 266.405670,102.959610 
	C262.886841,95.460953 259.241241,88.020264 255.842651,80.468170 
	C255.278427,79.214394 255.732620,77.502319 255.898270,76.307159 
	C262.034851,87.235779 270.907867,91.417793 283.286621,89.435127 
	C290.716125,88.245163 290.716125,88.245155 290.892456,80.997803 
	C292.865753,83.540192 295.405090,85.820770 296.721619,88.666954 
	C306.130096,109.006622 318.765350,127.386223 332.742584,144.619324 
	C345.323120,160.130417 359.576385,174.327499 373.607727,188.596863 
	C378.731537,193.807556 385.340790,197.557556 391.636169,201.986969 
	C392.000000,221.020889 392.000000,240.041794 392.000000,259.531342 
z"/>
<path fill="#2F2C2E" opacity="1.000000" stroke="none" 
	d="
M130.997177,386.172302 
	C131.657181,387.879181 132.317184,389.586029 132.988602,391.646454 
	C111.979103,392.000000 90.958214,392.000000 69.408829,391.662720 
	C67.744057,389.929474 66.596947,388.542114 65.473206,387.136108 
	C57.306198,376.917908 48.786095,366.957733 41.068283,356.410583 
	C30.816650,342.400757 21.236851,327.900665 11.272261,313.678558 
	C8.002106,309.011200 4.432605,304.553558 0.999996,300.000000 
	C1.000000,266.645782 1.000000,233.291550 1.000002,199.468658 
	C3.630645,203.071487 6.539779,206.991943 8.843853,211.240540 
	C18.970022,229.912613 28.199432,249.113754 39.134621,267.292572 
	C50.582558,286.323792 63.580608,304.424530 75.993584,322.869720 
	C77.053848,324.445251 78.809822,325.552551 80.666718,327.400696 
	C81.090843,347.170319 81.090843,366.416656 81.090843,386.172302 
	C98.106293,386.172302 114.551735,386.172302 130.997177,386.172302 
z"/>
<path fill="#3B393A" opacity="1.000000" stroke="none" 
	d="
M314.171417,265.002594 
	C316.660431,266.493286 319.301758,267.783875 321.596039,269.530396 
	C323.936859,271.312347 325.713806,273.865692 328.121307,275.524384 
	C346.045990,287.873596 364.033478,300.132751 382.089966,312.288330 
	C384.918121,314.192230 388.195923,315.428253 391.632874,316.986572 
	C392.000000,338.687561 392.000000,360.375122 391.608337,382.528473 
	C385.537323,380.358582 379.576599,378.194427 374.228638,375.003326 
	C354.016785,362.942932 334.027039,350.510895 313.880554,338.339752 
	C311.883942,337.133575 309.385040,336.758789 306.760803,335.773743 
	C296.943604,335.475555 287.481018,335.516998 278.030518,335.199219 
	C276.668060,335.153412 274.334167,333.490295 274.215271,332.385620 
	C273.762299,328.176636 274.032471,323.889832 274.032471,319.182495 
	C276.255280,319.182495 277.881378,319.182465 279.507507,319.182495 
	C288.643188,319.182678 297.781738,319.298218 306.911652,319.069153 
	C308.426910,319.031128 311.101257,317.599579 311.190979,316.623627 
	C311.566528,312.538574 312.168549,307.925171 310.594421,304.454773 
	C309.868500,302.854340 304.327698,303.440308 300.971069,303.026764 
	C300.643311,302.986359 300.322632,302.888184 299.998688,302.816833 
	C299.163483,301.454437 298.591675,299.797974 297.451233,298.776276 
	C288.539551,290.792450 279.549622,282.894562 270.492981,275.075470 
	C269.336304,274.076843 267.655884,273.684814 265.765930,272.547943 
	C265.391022,262.725800 265.468231,253.367493 265.791870,244.003082 
	C266.367035,243.994003 266.695770,243.992157 267.322510,244.143951 
	C277.025604,257.800690 287.109039,270.899658 295.528961,284.992462 
	C299.328552,291.351990 303.370453,292.742004 309.675476,292.043671 
	C312.579010,291.722107 314.126465,290.781250 314.066589,287.481903 
	C313.930573,279.991913 314.116425,272.496063 314.171417,265.002594 
z"/>
<path fill="#464446" opacity="1.000000" stroke="none" 
	d="
M392.000000,137.531342 
	C390.294159,136.761917 388.213104,135.824432 386.942169,134.237930 
	C377.197906,122.074448 366.654541,110.403725 358.223633,97.373718 
	C348.248108,81.956413 339.445953,65.666733 331.446625,49.121166 
	C325.487091,36.794708 321.538910,23.486843 316.867584,10.553706 
	C315.866272,7.781427 315.608490,4.740582 315.004089,1.411724 
	C340.614105,1.000000 366.228180,1.000000 392.000000,1.000000 
	C392.000000,46.354111 392.000000,91.708397 392.000000,137.531342 
z"/>
<path fill="#383537" opacity="1.000000" stroke="none" 
	d="
M307.119293,335.998108 
	C309.385040,336.758789 311.883942,337.133575 313.880554,338.339752 
	C334.027039,350.510895 354.016785,362.942932 374.228638,375.003326 
	C379.576599,378.194427 385.537323,380.358582 391.608337,382.997131 
	C392.000000,385.985809 392.000000,388.971649 392.000000,392.000000 
	C364.312439,392.000000 336.624878,392.000000 308.411255,391.667664 
	C306.589142,389.613922 305.293091,387.892548 304.449463,386.096191 
	C307.833466,386.021271 310.765076,386.021271 314.005463,386.021271 
	C314.005463,381.686890 313.870056,378.039795 314.047913,374.408020 
	C314.192719,371.451385 312.835480,370.697693 310.156616,370.750824 
	C304.161743,370.869781 298.162872,370.786652 292.165649,370.786316 
	C286.230530,370.785980 280.295410,370.786255 274.347351,370.786255 
	C274.347351,363.836731 274.347351,357.595947 274.347351,350.909271 
	C283.614868,350.909271 292.578674,350.735779 301.530670,350.986115 
	C305.699585,351.102692 307.808929,350.133484 307.256958,345.484772 
	C306.886047,342.361145 307.143158,339.162933 307.119293,335.998108 
z"/>
<path fill="#2C2A2C" opacity="1.000000" stroke="none" 
	d="
M0.999996,300.468658 
	C4.432605,304.553558 8.002106,309.011200 11.272261,313.678558 
	C21.236851,327.900665 30.816650,342.400757 41.068283,356.410583 
	C48.786095,366.957733 57.306198,376.917908 65.473206,387.136108 
	C66.596947,388.542114 67.744057,389.929474 68.940170,391.662720 
	C46.395477,392.000000 23.790956,392.000000 1.000000,392.000000 
	C1.000000,361.646027 1.000000,331.291687 0.999996,300.468658 
z"/>
<path fill="#413D3F" opacity="1.000000" stroke="none" 
	d="
M255.716187,76.002029 
	C255.732620,77.502319 255.278427,79.214394 255.842651,80.468170 
	C259.241241,88.020264 262.886841,95.460953 266.405670,102.959610 
	C266.748291,103.689728 266.790894,104.560654 266.523682,105.750198 
	C263.436768,106.075050 260.778107,106.190308 258.170258,105.879440 
	C256.961151,105.735313 255.172867,105.038643 254.798492,104.122147 
	C249.882767,92.088333 239.799545,85.709770 228.926697,79.709633 
	C222.908920,60.028770 216.764236,40.776451 211.073975,21.390755 
	C209.129425,14.766010 208.325211,7.806540 207.000000,1.000001 
	C223.687561,1.000000 240.375122,1.000000 257.531342,1.000000 
	C257.999268,2.023171 257.998566,3.046343 257.596069,4.543353 
	C255.400864,5.337814 253.601929,5.630570 251.814896,5.983479 
	C237.815033,8.748212 230.770584,17.781946 231.423248,32.115086 
	C231.921539,43.058094 232.018951,43.146759 242.913788,42.998344 
	C245.813568,52.656193 248.624924,61.886452 251.664047,71.041100 
	C251.960449,71.933929 253.661362,72.360497 254.840729,73.293503 
	C255.219482,74.389679 255.467834,75.195854 255.716187,76.002029 
z"/>
<path fill="#353234" opacity="1.000000" stroke="none" 
	d="
M303.997070,386.171143 
	C305.293091,387.892548 306.589142,389.613922 307.942596,391.667664 
	C276.312439,392.000000 244.624878,392.000000 212.468658,392.000000 
	C209.860580,390.022888 207.721176,388.045807 205.295456,385.547424 
	C205.009140,374.289062 205.009140,363.552002 205.009140,352.246155 
	C214.855743,352.246155 224.108032,352.124664 233.354095,352.311462 
	C236.629868,352.377625 238.470947,351.543976 238.638184,348.022766 
	C241.184616,349.385925 243.447678,350.634766 245.561050,352.099609 
	C248.765839,354.320862 251.866577,356.692261 255.118927,359.457855 
	C255.226318,368.492615 255.226318,377.069427 255.226318,386.171143 
	C271.854767,386.171143 287.925903,386.171143 303.997070,386.171143 
z"/>
<path fill="#3F3C3D" opacity="1.000000" stroke="none" 
	d="
M206.531342,1.000001 
	C208.325211,7.806540 209.129425,14.766010 211.073975,21.390755 
	C216.764236,40.776451 222.908920,60.028770 228.592072,79.773651 
	C217.370102,90.311058 211.935776,102.443184 214.311890,117.718384 
	C213.986038,118.026222 213.858047,118.151848 213.396149,118.183952 
	C209.367432,115.729240 205.672638,113.368034 202.274460,110.820969 
	C202.783783,109.156631 203.522232,107.507812 203.108932,106.232140 
	C201.946487,102.644180 200.154480,99.264778 198.895279,95.702560 
	C196.778580,89.714485 194.881775,83.648682 193.150024,77.406921 
	C204.327011,72.459404 210.661514,63.376797 215.620346,53.192951 
	C216.235275,51.930088 215.227859,48.834721 213.985931,47.902737 
	C210.018936,44.925743 205.803909,42.059444 201.268417,40.127628 
	C197.469254,38.509441 196.691849,36.513462 196.866470,32.647179 
	C197.081787,27.880117 196.618011,22.973398 195.669403,18.284485 
	C193.395905,7.046597 193.212646,7.086743 181.990631,8.923452 
	C181.337204,9.030401 180.665817,9.027600 180.002090,8.656544 
	C179.667603,5.824809 179.333801,3.412405 179.000000,1.000000 
	C188.020889,1.000000 197.041794,1.000000 206.531342,1.000001 
z"/>
<path fill="#3B393A" opacity="1.000000" stroke="none" 
	d="
M133.894638,18.998297 
	C132.602646,15.060143 131.231308,11.145480 130.055466,7.172952 
	C129.542938,5.441438 129.431351,3.591252 129.068848,1.397481 
	C139.687561,1.000000 150.375122,1.000000 161.599426,1.395063 
	C163.143967,6.350620 164.151764,10.911114 164.891632,15.722490 
	C163.217270,15.453975 161.670319,15.156826 160.430878,14.373271 
	C156.789734,12.071410 153.234283,9.627996 149.713760,7.142979 
	C145.902908,4.453024 142.850632,4.509437 140.342361,8.965050 
	C138.395508,12.423401 136.058319,15.662011 133.894638,18.998297 
z"/>
<path fill="#3F3B3C" opacity="1.000000" stroke="none" 
	d="
M165.159561,15.471605 
	C164.151764,10.911114 163.143967,6.350620 162.068085,1.395063 
	C167.354935,1.000000 172.709854,1.000000 178.532394,1.000000 
	C179.333801,3.412405 179.667603,5.824809 179.709229,8.872931 
	C174.664566,11.496299 169.912064,13.483952 165.159561,15.471605 
z"/>
<path fill="#FAFAFA" opacity="1.000000" stroke="none" 
	d="
M238.287811,348.005157 
	C238.470947,351.543976 236.629868,352.377625 233.354095,352.311462 
	C224.108032,352.124664 214.855743,352.246155 205.009140,352.246155 
	C205.009140,363.552002 205.009140,374.289062 204.938248,385.486908 
	C198.787659,385.838867 192.707977,385.730042 186.454880,384.853699 
	C186.215073,373.723846 186.148666,363.361511 186.204437,352.544373 
	C186.243652,340.059601 186.160675,328.029694 186.199097,315.550201 
	C186.320480,311.236206 186.320480,307.371796 186.320480,303.305695 
	C190.222641,303.126038 193.610519,302.970062 197.456421,302.920593 
	C208.859940,303.038391 219.806061,302.980255 230.750763,303.078888 
	C243.947006,303.197815 241.697403,301.230103 242.074738,314.386139 
	C242.178879,318.016968 241.168961,319.365631 237.358093,319.273224 
	C229.245224,319.076447 221.121201,319.339935 212.610382,319.320892 
	C210.147141,319.356903 208.075226,319.486816 205.705963,319.710999 
	C205.349152,320.195709 205.289719,320.586151 205.170685,321.441528 
	C205.111084,326.502686 205.111084,331.098877 205.111084,335.908844 
	C211.797745,335.908844 217.898254,335.908844 224.450409,336.024597 
	C229.158295,336.140381 233.414566,336.140381 238.287811,336.140381 
	C238.287811,340.735474 238.287811,344.370300 238.287811,348.005157 
z"/>
<path fill="#FCFCFC" opacity="1.000000" stroke="none" 
	d="
M132.826920,236.360779 
	C134.851669,230.232605 137.106918,224.529205 138.822174,218.667786 
	C139.700745,215.665573 141.154190,214.792145 144.093002,214.935089 
	C148.541275,215.151459 153.007843,214.991592 158.594589,214.991592 
	C152.904541,230.191040 147.463303,244.725830 141.788910,259.902954 
	C138.624817,267.458221 135.471664,274.287354 132.825409,281.307556 
	C130.175720,288.336823 126.645180,293.502747 117.945999,291.416107 
	C117.359390,291.275421 116.659081,291.608795 116.011650,291.721680 
	C114.193863,290.959595 112.376076,290.197510 110.289352,288.863312 
	C109.048592,286.448059 108.076759,284.604889 107.104919,282.761749 
	C105.008919,277.629730 102.912918,272.497711 100.563812,267.128784 
	C95.171570,253.229736 90.012299,239.575073 84.907570,225.900055 
	C83.645432,222.518951 82.560425,219.071732 81.065468,214.692505 
	C87.307213,214.692505 92.881432,214.473557 98.409531,214.880829 
	C99.489929,214.960419 100.758865,217.335510 101.318741,218.877686 
	C107.152908,234.947632 112.857956,251.064468 118.608513,267.164825 
	C118.865059,267.883087 119.214554,268.568146 120.830101,269.544220 
	C124.831345,258.602844 128.832596,247.661484 132.826920,236.360779 
z"/>
<path fill="#353234" opacity="1.000000" stroke="none" 
	d="
M116.053825,292.084167 
	C116.659081,291.608795 117.359390,291.275421 117.945999,291.416107 
	C126.645180,293.502747 130.175720,288.336823 132.825409,281.307556 
	C135.471664,274.287354 138.624817,267.458221 141.793060,260.273193 
	C147.661911,259.224823 150.037964,263.531158 152.963928,266.992126 
	C156.610336,271.305298 160.273117,275.604584 164.211060,280.435394 
	C163.354065,284.442108 162.214859,287.923279 160.890060,291.971558 
	C162.543457,291.547943 163.271164,291.361481 164.014404,291.527344 
	C170.572357,299.792267 177.093430,307.722931 183.710327,315.572784 
	C184.108261,316.044861 185.270889,315.872345 186.077698,315.999756 
	C186.160675,328.029694 186.243652,340.059601 185.834595,352.531616 
	C181.767654,349.973938 178.242630,346.911835 174.599365,343.997559 
	C172.364807,342.210083 169.949051,340.649139 167.481293,338.536407 
	C167.333221,328.198029 167.370010,318.309143 167.254761,308.422058 
	C167.234756,306.706879 166.571701,304.999207 165.950195,303.023499 
	C160.392242,302.896423 155.089752,303.033936 149.438049,303.506836 
	C148.881912,312.562988 148.675003,321.283691 148.468079,330.004395 
	C146.641068,328.961487 144.295166,328.335205 143.069870,326.809204 
	C133.953659,315.455322 125.059692,303.923004 116.053825,292.084167 
z"/>
<path fill="#FAFAFA" opacity="1.000000" stroke="none" 
	d="
M131.416168,386.097778 
	C114.551735,386.172302 98.106293,386.172302 81.090843,386.172302 
	C81.090843,366.416656 81.090843,347.170319 81.002182,327.462799 
	C80.982567,320.359375 81.211433,313.713257 81.049698,307.076691 
	C80.974724,304.000305 81.970184,302.875000 85.007011,303.024994 
	C88.488914,303.196960 91.995102,303.223022 95.473694,303.020111 
	C99.054672,302.811249 99.941803,304.395050 99.921761,307.754791 
	C99.798882,328.348877 99.860237,348.944061 99.860237,370.142944 
	C111.887390,370.142944 123.750206,370.142944 135.992188,370.142944 
	C135.992188,375.628998 135.992188,380.530640 135.992188,385.792175 
	C134.709808,385.863464 133.272491,385.943329 131.416168,386.097778 
z"/>
<path fill="#FEFEFE" opacity="1.000000" stroke="none" 
	d="
M166.205643,303.288055 
	C166.571701,304.999207 167.234756,306.706879 167.254761,308.422058 
	C167.370010,318.309143 167.333221,328.198029 167.349762,338.989441 
	C167.439560,350.601013 167.527527,361.309448 167.615509,372.017853 
	C167.615524,376.464600 167.615524,380.911346 167.615524,385.675354 
	C160.955582,385.675354 155.063385,385.675354 148.605576,385.675354 
	C148.605576,367.389130 148.605576,349.160339 148.536835,330.467987 
	C148.675003,321.283691 148.881912,312.562988 149.913055,303.581665 
	C155.893402,303.310059 161.049530,303.299042 166.205643,303.288055 
z"/>
<path fill="#333132" opacity="1.000000" stroke="none" 
	d="
M167.940796,372.038696 
	C167.527527,361.309448 167.439560,350.601013 167.483124,339.439575 
	C169.949051,340.649139 172.364807,342.210083 174.599365,343.997559 
	C178.242630,346.911835 181.767654,349.973938 185.712418,352.986450 
	C186.148666,363.361511 186.215073,373.723846 186.166992,384.542847 
	C184.136200,383.934113 182.063492,383.074677 180.334808,381.762177 
	C176.225311,378.642029 172.278595,375.307465 167.940796,372.038696 
z"/>
<path fill="#353234" opacity="1.000000" stroke="none" 
	d="
M106.966431,283.079285 
	C108.076759,284.604889 109.048592,286.448059 110.028770,288.645264 
	C107.010551,288.252716 105.815308,286.457092 106.966431,283.079285 
z"/>
<path fill="#FBFBFB" opacity="1.000000" stroke="none" 
	d="
M163.998886,291.175018 
	C163.271164,291.361481 162.543457,291.547943 160.890060,291.971558 
	C162.214859,287.923279 163.354065,284.442108 164.552368,280.582703 
	C169.796753,266.665161 174.976639,253.123672 180.174576,239.589157 
	C180.790192,237.986191 181.504684,236.421219 182.213959,234.460449 
	C184.755539,228.679291 187.060410,223.170563 189.880783,217.939789 
	C190.692825,216.433746 192.934052,214.901550 194.615387,214.787491 
	C207.616989,213.905563 207.931900,213.887711 212.753265,225.773651 
	C220.985901,246.069199 228.817093,266.528107 236.705246,286.961517 
	C237.180649,288.192993 236.673981,289.803589 235.865005,291.336121 
	C234.774948,291.421661 234.444183,291.407532 234.113342,291.396423 
	C229.498672,291.241211 223.761551,292.693756 220.586853,290.476807 
	C217.448624,288.285309 217.128494,282.273071 215.093582,278.174469 
	C214.345688,276.668121 212.293106,274.979156 210.723984,274.861450 
	C205.291962,274.453827 199.810822,274.700775 194.348373,274.698578 
	C184.536697,274.694611 184.536697,274.694611 181.049667,284.374451 
	C180.142044,290.498535 176.553726,291.802246 171.350952,291.078003 
	C168.951248,290.743958 166.452652,291.120575 163.998886,291.175018 
M195.100006,242.686996 
	C192.984634,248.546158 190.869247,254.405319 188.590805,260.716125 
	C195.906693,260.716125 202.506668,260.716125 210.029068,260.716125 
	C206.408234,251.268539 203.061188,242.535324 199.714142,233.802094 
	C199.307877,233.933594 198.901627,234.065094 198.495377,234.196579 
	C197.449875,236.782822 196.404388,239.369049 195.100006,242.686996 
z"/>
<path fill="#F5AC68" opacity="1.000000" stroke="none" 
	d="
M119.056213,120.386749 
	C125.461464,118.405220 131.600708,116.519501 137.839020,115.056129 
	C141.184723,114.271309 142.861588,116.101219 143.555069,119.558998 
	C146.165466,132.574860 142.433167,142.691269 132.085175,149.239227 
	C126.531425,150.569824 121.271973,151.957230 115.923187,152.708801 
	C114.467888,152.913284 111.620766,151.491577 111.319328,150.323944 
	C108.818123,140.635529 109.925644,131.331894 115.714417,122.921623 
	C116.400772,121.924461 117.775703,121.401253 119.056213,120.386749 
M119.808540,126.337219 
	C114.161789,132.690826 114.467209,140.089417 115.484306,147.691864 
	C133.425446,148.363388 142.826569,136.747208 138.251938,119.903603 
	C131.723938,120.127853 125.471497,121.197914 119.808540,126.337219 
z"/>
<path fill="#413E40" opacity="1.000000" stroke="none" 
	d="
M254.710327,73.003494 
	C253.661362,72.360497 251.960449,71.933929 251.664047,71.041100 
	C248.624924,61.886452 245.813568,52.656193 243.252655,42.859459 
	C252.545334,40.715607 260.337219,36.998058 263.403381,27.881271 
	C265.046722,22.994963 264.733765,17.450726 265.303589,12.203384 
	C266.302948,13.266295 267.796661,14.160432 268.226013,15.417955 
	C273.078003,29.629040 277.772461,43.893967 282.483795,58.152840 
	C282.738708,58.924370 282.768250,59.770351 282.560760,60.831284 
	C274.697327,55.114506 265.955109,55.496288 257.155396,56.325043 
	C254.259460,56.597786 252.594009,58.159721 253.018036,61.280899 
	C253.549469,65.192863 254.143372,69.096352 254.710327,73.003494 
z"/>
<path fill="#F6AC69" opacity="1.000000" stroke="none" 
	d="
M254.840729,73.293503 
	C254.143372,69.096352 253.549469,65.192863 253.018036,61.280899 
	C252.594009,58.159721 254.259460,56.597786 257.155396,56.325043 
	C265.955109,55.496288 274.697327,55.114506 282.541504,61.236412 
	C287.557556,66.821701 289.743866,73.276321 290.739075,80.639175 
	C290.716125,88.245155 290.716125,88.245163 283.286621,89.435127 
	C270.907867,91.417793 262.034851,87.235779 255.898270,76.307159 
	C255.467834,75.195854 255.219482,74.389679 254.840729,73.293503 
M285.860260,80.713394 
	C282.588562,63.664612 274.001984,57.702473 258.296448,61.574295 
	C256.862701,77.175873 268.180176,87.747627 283.354980,84.787270 
	C284.380371,84.587227 285.073425,82.683487 285.860260,80.713394 
z"/>
<path fill="#F6AC69" opacity="1.000000" stroke="none" 
	d="
M265.204559,11.845627 
	C264.733765,17.450726 265.046722,22.994963 263.403381,27.881271 
	C260.337219,36.998058 252.545334,40.715607 243.227814,42.410763 
	C232.018951,43.146759 231.921539,43.058094 231.423248,32.115086 
	C230.770584,17.781946 237.815033,8.748212 251.814896,5.983479 
	C253.601929,5.630570 255.400864,5.337814 257.594971,4.927028 
	C263.003265,4.234201 265.248657,6.584383 265.204559,11.845627 
M237.170258,23.060339 
	C236.830231,27.885626 236.490204,32.710911 236.150818,37.527115 
	C255.420807,38.703560 264.567993,25.523180 259.223541,10.068280 
	C248.000549,9.991501 240.977402,13.932322 237.170258,23.060339 
z"/>
<path fill="#3B393A" opacity="1.000000" stroke="none" 
	d="
M192.892471,77.615585 
	C194.881775,83.648682 196.778580,89.714485 198.895279,95.702560 
	C200.154480,99.264778 201.946487,102.644180 203.108932,106.232140 
	C203.522232,107.507812 202.783783,109.156631 201.934784,110.747581 
	C199.454285,109.727547 197.689758,108.412735 195.725708,107.554550 
	C194.967346,107.223190 193.311752,107.621384 192.878769,108.248825 
	C192.461945,108.852806 192.762009,110.486206 193.343262,111.124260 
	C194.320389,112.196884 195.759781,112.854988 197.022278,113.659904 
	C201.949768,116.801445 206.884140,119.932167 212.485458,123.492455 
	C196.943039,126.747215 189.362885,137.274094 183.533829,149.470551 
	C182.948685,150.694901 184.209045,153.748413 185.529556,154.782928 
	C194.200668,161.576004 203.644104,166.598068 215.186661,166.093094 
	C216.395172,166.040237 218.416931,166.743744 218.767929,167.616501 
	C223.532104,179.462936 233.234222,185.945618 243.993271,191.349152 
	C247.066315,196.454910 249.740692,201.869553 253.365448,206.547821 
	C255.459488,209.250473 255.889206,211.186493 253.639923,214.237488 
	C251.551208,214.759064 249.981461,214.893967 247.919708,215.071136 
	C247.919708,226.746429 247.919708,237.873566 247.919708,249.000702 
	C245.521317,247.029968 242.666412,245.416245 240.800003,243.029495 
	C230.162659,229.426559 219.287781,215.969452 209.416351,201.819077 
	C200.109741,188.478363 191.180939,174.752533 183.479263,160.446045 
	C174.819382,144.359650 167.675186,127.453918 159.994339,110.847870 
	C158.969849,108.632912 158.664856,106.085144 158.340057,103.428986 
	C163.621490,106.461174 168.481964,109.942955 173.639511,112.908020 
	C174.806808,113.579094 177.779373,113.081520 178.609848,112.058022 
	C185.861649,103.120743 191.237457,93.351151 190.896957,81.289474 
	C190.862930,80.084579 192.194626,78.841133 192.892471,77.615585 
z"/>
<path fill="#FDFDFD" opacity="1.000000" stroke="none" 
	d="
M248.010010,249.461685 
	C247.919708,237.873566 247.919708,226.746429 247.919708,215.071136 
	C249.981461,214.893967 251.551208,214.759064 253.558823,214.547577 
	C260.743164,213.501740 265.180084,216.824890 268.974792,222.003799 
	C276.834961,232.731140 284.948700,243.272690 292.953583,253.894073 
	C294.018524,255.307098 295.056976,256.740112 296.785156,259.081818 
	C296.785156,243.899200 296.785156,229.857986 296.785156,215.405289 
	C302.528625,215.405289 307.904938,215.405289 314.022308,215.405289 
	C314.022308,231.593933 314.022308,247.834671 314.096863,264.539001 
	C314.116425,272.496063 313.930573,279.991913 314.066589,287.481903 
	C314.126465,290.781250 312.579010,291.722107 309.675476,292.043671 
	C303.370453,292.742004 299.328552,291.351990 295.528961,284.992462 
	C287.109039,270.899658 277.025604,257.800690 267.262177,243.870636 
	C266.451019,243.632980 265.998230,243.821091 265.545441,244.009186 
	C265.468231,253.367493 265.391022,262.725800 265.416779,272.542664 
	C265.438263,277.659607 265.195221,282.322754 265.331909,286.974701 
	C265.423370,290.087921 264.575806,291.362549 261.175751,291.449310 
	C248.120224,291.782593 248.125610,291.900574 248.121216,278.917786 
	C248.117935,269.252747 248.107529,259.587708 248.010010,249.461685 
z"/>
<path fill="#FBFBFB" opacity="1.000000" stroke="none" 
	d="
M304.449463,386.096191 
	C287.925903,386.171143 271.854767,386.171143 255.226318,386.171143 
	C255.226318,377.069427 255.226318,368.492615 255.228912,359.000427 
	C255.158096,341.723267 255.084671,325.361542 255.011246,308.999786 
	C254.453461,303.876038 256.970337,302.830322 261.706848,302.953949 
	C274.157318,303.278931 286.622467,303.039368 299.540222,302.920776 
	C300.322632,302.888184 300.643311,302.986359 300.971069,303.026764 
	C304.327698,303.440308 309.868500,302.854340 310.594421,304.454773 
	C312.168549,307.925171 311.566528,312.538574 311.190979,316.623627 
	C311.101257,317.599579 308.426910,319.031128 306.911652,319.069153 
	C297.781738,319.298218 288.643188,319.182678 279.507507,319.182495 
	C277.881378,319.182465 276.255280,319.182495 274.032471,319.182495 
	C274.032471,323.889832 273.762299,328.176636 274.215271,332.385620 
	C274.334167,333.490295 276.668060,335.153412 278.030518,335.199219 
	C287.481018,335.516998 296.943604,335.475555 306.760803,335.773743 
	C307.143158,339.162933 306.886047,342.361145 307.256958,345.484772 
	C307.808929,350.133484 305.699585,351.102692 301.530670,350.986115 
	C292.578674,350.735779 283.614868,350.909271 274.347351,350.909271 
	C274.347351,357.595947 274.347351,363.836731 274.347351,370.786255 
	C280.295410,370.786255 286.230530,370.785980 292.165649,370.786316 
	C298.162872,370.786652 304.161743,370.869781 310.156616,370.750824 
	C312.835480,370.697693 314.192719,371.451385 314.047913,374.408020 
	C313.870056,378.039795 314.005463,381.686890 314.005463,386.021271 
	C310.765076,386.021271 307.833466,386.021271 304.449463,386.096191 
z"/>
<path fill="#F5AC68" opacity="1.000000" stroke="none" 
	d="
M193.150024,77.406921 
	C192.194626,78.841133 190.862930,80.084579 190.896957,81.289474 
	C191.237457,93.351151 185.861649,103.120743 178.609848,112.058022 
	C177.779373,113.081520 174.806808,113.579094 173.639511,112.908020 
	C168.481964,109.942955 163.621490,106.461174 158.347000,103.021683 
	C154.356903,97.278893 150.673264,91.680901 146.837097,85.851128 
	C144.371475,89.719658 141.412521,94.363205 138.452393,99.005997 
	C137.647934,100.267746 137.067993,101.809723 135.963730,102.701363 
	C135.021759,103.461983 133.475204,103.473877 132.196075,103.817001 
	C132.169617,102.610847 131.679901,101.137962 132.194885,100.243568 
	C134.764938,95.780067 137.603745,91.471558 140.337219,87.101776 
	C141.278580,85.596901 142.188797,84.072548 143.544815,81.849602 
	C129.144394,84.847458 118.021568,79.412163 107.473206,71.850082 
	C104.348961,69.610329 103.697411,67.331680 105.613045,63.868256 
	C111.256775,53.664478 117.739456,44.436192 128.440186,41.134476 
	C130.340698,33.554081 132.075134,26.636097 133.852112,19.358204 
	C136.058319,15.662011 138.395508,12.423401 140.342361,8.965050 
	C142.850632,4.509437 145.902908,4.453024 149.713760,7.142979 
	C153.234283,9.627996 156.789734,12.071410 160.430878,14.373271 
	C161.670319,15.156826 163.217270,15.453975 164.891632,15.722488 
	C169.912064,13.483952 174.664566,11.496299 179.709930,9.292261 
	C180.665817,9.027600 181.337204,9.030401 181.990631,8.923452 
	C193.212646,7.086743 193.395905,7.046597 195.669403,18.284485 
	C196.618011,22.973398 197.081787,27.880117 196.866470,32.647179 
	C196.691849,36.513462 197.469254,38.509441 201.268417,40.127628 
	C205.803909,42.059444 210.018936,44.925743 213.985931,47.902737 
	C215.227859,48.834721 216.235275,51.930088 215.620346,53.192951 
	C210.661514,63.376797 204.327011,72.459404 193.150024,77.406921 
M166.182114,79.363861 
	C164.783829,73.866234 163.385544,68.368607 161.851547,62.337383 
	C147.160782,82.206009 153.063889,100.998268 175.901642,108.226135 
	C182.165649,99.183540 187.986923,90.043694 185.445648,77.982620 
	C185.208969,76.859329 186.942673,74.408051 188.203110,74.024475 
	C199.755035,70.509033 205.865067,61.665462 211.679611,50.886406 
	C206.072479,48.025131 200.911316,45.068756 195.479095,42.746326 
	C192.456238,41.453972 191.388397,40.446495 191.590225,36.687561 
	C191.950851,29.971298 190.923416,23.173714 190.373032,16.418541 
	C190.139999,13.558547 188.488007,12.063265 185.639771,13.111208 
	C179.298782,15.444227 172.799011,17.539326 166.845047,20.651720 
	C163.704651,22.293337 162.056702,22.257940 159.505585,20.052057 
	C155.999527,17.020464 152.153503,14.339150 148.226349,11.868198 
	C147.266220,11.264089 144.692932,11.511913 144.100143,12.299946 
	C137.963547,20.457594 133.290588,29.260323 135.277954,39.957512 
	C135.849716,43.035053 135.487747,44.462215 132.228195,45.337894 
	C120.749382,48.421673 114.778847,57.280361 109.676018,66.930984 
	C126.726799,84.414864 147.562820,81.316872 156.667068,59.992546 
	C155.206558,60.193607 153.923981,60.301575 152.670517,60.554108 
	C145.654678,61.967590 138.666687,63.536743 131.617584,64.753693 
	C130.153976,65.006371 128.472504,63.997086 126.891457,63.569405 
	C128.217346,62.434502 129.511414,61.258350 130.891510,60.193695 
	C131.236496,59.927559 131.863922,60.046551 132.352325,59.944454 
	C140.438431,58.254005 148.523041,56.556515 155.466614,55.100018 
	C152.833725,47.806271 150.182327,40.756859 147.845917,33.604557 
	C147.562607,32.737274 148.977600,31.315210 149.605484,30.150265 
	C150.459564,30.999729 151.607285,31.709515 152.094391,32.733543 
	C152.722290,34.053459 152.705917,35.662556 153.168274,37.081535 
	C155.002853,42.711891 157.104462,48.198719 162.197144,52.318367 
	C166.088470,46.058128 169.574097,40.190712 173.381973,34.540459 
	C174.158051,33.388893 176.145874,33.053947 177.575104,32.342560 
	C177.520401,33.820461 177.680847,35.350227 177.341156,36.759441 
	C177.081421,37.837006 176.191238,38.763401 175.577805,39.754772 
	C172.473083,44.772373 169.367157,49.789223 166.036453,55.170158 
	C173.905304,57.761013 180.879395,57.440353 187.966293,55.739491 
	C189.109909,55.465023 190.603958,56.650681 191.936020,57.161396 
	C191.032928,58.149490 190.282913,59.391754 189.183502,60.053894 
	C188.093079,60.710621 186.655090,61.045456 185.361969,61.066952 
	C179.300308,61.167702 173.236023,61.111729 166.731369,61.111729 
	C167.100525,62.899071 167.345123,64.329079 167.694412,65.733040 
	C169.502167,72.999397 171.443146,80.235527 173.060730,87.543503 
	C173.341736,88.813072 172.295975,90.376320 171.863037,91.803917 
	C170.806702,90.816772 169.261826,90.018364 168.792770,88.804314 
	C167.720230,86.028313 167.173721,83.049065 166.182114,79.363861 
z"/>
<path fill="#373436" opacity="1.000000" stroke="none" 
	d="
M254.670013,308.944000 
	C255.084671,325.361542 255.158096,341.723267 255.121521,358.542450 
	C251.866577,356.692261 248.765839,354.320862 245.561050,352.099609 
	C243.447678,350.634766 241.184616,349.385925 238.638184,348.022766 
	C238.287811,344.370300 238.287811,340.735474 238.287811,336.140381 
	C233.414566,336.140381 229.158295,336.140381 224.435059,335.665619 
	C221.883362,332.404053 219.728226,329.666443 217.735580,326.815277 
	C216.059479,324.417053 214.572464,321.886688 213.001740,319.414795 
	C221.121201,319.339935 229.245224,319.076447 237.358093,319.273224 
	C241.168961,319.365631 242.178879,318.016968 242.074738,314.386139 
	C241.697403,301.230103 243.947006,303.197815 230.750763,303.078888 
	C219.806061,302.980255 208.859940,303.038391 197.439636,302.563660 
	C193.339249,294.632660 188.140686,288.538788 181.159500,284.001648 
	C184.536697,274.694611 184.536697,274.694611 194.348373,274.698578 
	C199.810822,274.700775 205.291962,274.453827 210.723984,274.861450 
	C212.293106,274.979156 214.345688,276.668121 215.093582,278.174469 
	C217.128494,282.273071 217.448624,288.285309 220.586853,290.476807 
	C223.761551,292.693756 229.498672,291.241211 234.113342,291.396423 
	C234.444183,291.407532 234.774948,291.421661 235.561783,291.547607 
	C240.785339,298.823456 247.572464,303.839478 254.670013,308.944000 
z"/>
<path fill="#F5AC68" opacity="1.000000" stroke="none" 
	d="
M183.639282,182.278046 
	C184.109680,190.242111 184.108795,190.234558 176.464233,191.125580 
	C152.958450,193.865311 146.668564,178.787369 146.174408,163.019302 
	C146.128464,161.553558 147.214417,159.271713 148.422714,158.670135 
	C158.568970,153.618698 175.049927,159.196625 179.973740,169.509598 
	C181.796036,173.326416 182.413986,177.718231 183.639282,182.278046 
M175.971481,171.770355 
	C170.483276,162.953629 160.408554,159.717255 151.101456,163.781158 
	C151.002731,180.310104 160.045380,189.543396 179.638062,185.709991 
	C178.509033,181.275452 177.388321,176.873596 175.971481,171.770355 
z"/>
<path fill="#F6AC69" opacity="1.000000" stroke="none" 
	d="
M244.374329,191.332489 
	C233.234222,185.945618 223.532104,179.462936 218.767929,167.616501 
	C218.416931,166.743744 216.395172,166.040237 215.186661,166.093094 
	C203.644104,166.598068 194.200668,161.576004 185.529556,154.782928 
	C184.209045,153.748413 182.948685,150.694901 183.533829,149.470551 
	C189.362885,137.274094 196.943039,126.747215 212.485458,123.492455 
	C206.884140,119.932167 201.949768,116.801445 197.022278,113.659904 
	C195.759781,112.854988 194.320389,112.196884 193.343262,111.124260 
	C192.762009,110.486206 192.461945,108.852806 192.878769,108.248825 
	C193.311752,107.621384 194.967346,107.223190 195.725708,107.554550 
	C197.689758,108.412735 199.454285,109.727547 201.638153,110.933441 
	C205.672638,113.368034 209.367432,115.729240 213.543427,118.384094 
	C214.186340,118.297211 214.348068,117.916687 214.509781,117.536156 
	C211.935776,102.443184 217.370102,90.311058 228.643219,80.149933 
	C239.799545,85.709770 249.882767,92.088333 254.798492,104.122147 
	C255.172867,105.038643 256.961151,105.735313 258.170258,105.879440 
	C260.778107,106.190308 263.436768,106.075050 266.535431,106.134613 
	C274.014252,109.744858 281.067993,113.287567 288.033173,116.996597 
	C290.924774,118.536392 291.274780,120.881767 289.487701,123.653351 
	C286.180817,128.781982 282.951538,133.960693 279.452087,139.494690 
	C284.335968,147.031693 287.062805,155.805832 288.069702,165.586090 
	C286.624084,167.136871 285.227539,168.955688 283.543213,169.280029 
	C277.236786,170.494446 270.849304,171.788162 264.466614,171.934250 
	C260.027557,172.035873 257.300323,172.418594 255.609787,177.235886 
	C254.164276,181.354843 251.192581,184.983871 248.621246,188.636200 
	C247.773758,189.839981 246.068466,190.439850 244.374329,191.332489 
M282.186768,159.192108 
	C279.833710,153.392822 277.853912,147.398544 274.969360,141.876907 
	C273.537231,139.135468 273.557434,137.690323 275.451935,135.398193 
	C279.096649,130.988510 282.354004,126.258682 285.998444,121.357040 
	C276.142578,114.366417 267.004181,109.005188 255.229004,111.046089 
	C254.000763,111.258965 251.980774,109.671997 251.058853,108.393280 
	C247.521973,103.487633 245.222763,97.227722 240.754761,93.542946 
	C227.937180,82.972237 229.056931,82.840431 221.652924,97.606651 
	C213.970825,112.927452 219.742401,125.858894 236.357422,131.866898 
	C234.687332,123.598869 232.962265,115.679771 231.582169,107.701012 
	C231.306946,106.109901 232.349960,104.290779 232.785110,102.576797 
	C233.870224,103.926056 235.579651,105.128685 235.936707,106.648941 
	C237.899460,115.005943 239.531342,123.440666 241.380157,132.346725 
	C242.664749,131.593628 243.445145,131.021759 244.310867,130.647079 
	C250.062195,128.157928 255.778961,125.569443 261.643951,123.380257 
	C262.705139,122.984154 264.398926,124.282768 265.800659,124.798996 
	C264.793518,125.864967 263.845428,126.997810 262.750793,127.964737 
	C262.298035,128.364685 261.531219,128.409119 260.124420,128.683365 
	C254.027206,130.103241 248.538239,132.625916 243.986771,137.445557 
	C245.247711,138.322281 246.288971,139.105377 247.386673,139.799210 
	C252.029953,142.734146 256.779816,145.513443 261.284088,148.646698 
	C262.487854,149.484070 262.959778,151.373550 263.767700,152.780014 
	C262.181030,152.754639 260.527832,152.995377 259.028473,152.620636 
	C257.802948,152.314346 256.761658,151.272629 255.637573,150.558685 
	C250.948685,147.580475 246.259384,144.602890 241.570221,141.625076 
	C241.019424,141.836395 240.468643,142.047714 239.917847,142.259033 
	C239.917847,148.116959 240.015320,153.977310 239.870865,159.831665 
	C239.811295,162.245407 243.436569,165.497559 238.847565,166.725754 
	C238.206329,166.897354 235.457520,162.649338 235.249420,160.308075 
	C234.718567,154.335480 235.072632,148.284256 235.072632,142.074524 
	C226.726471,144.162674 218.531662,146.322662 210.269913,148.185822 
	C208.650543,148.551010 206.772110,147.767487 205.013168,147.513763 
	C206.396820,146.278580 207.588150,144.395294 209.196671,143.917953 
	C217.073898,141.580399 225.062241,139.617294 233.338654,137.435547 
	C213.174973,117.987213 195.474167,133.612335 188.455093,151.010071 
	C197.513489,157.381577 206.735580,163.181915 218.709854,160.410736 
	C221.881378,159.676773 222.222778,161.994873 222.843842,164.101456 
	C226.142929,175.291763 234.826904,181.085129 245.144562,186.584320 
	C247.916214,181.393066 251.016357,176.800217 252.866379,171.749435 
	C254.434250,167.469025 256.214020,166.670242 260.770020,166.961044 
	C268.057922,167.426208 275.450439,166.252655 283.460419,165.728546 
	C282.799957,162.807526 282.482513,161.403549 282.186768,159.192108 
z"/>
<path fill="#3A3739" opacity="1.000000" stroke="none" 
	d="
M265.791870,244.003082 
	C265.998230,243.821091 266.451019,243.632980 266.964172,243.718155 
	C266.695770,243.992157 266.367035,243.994003 265.791870,244.003082 
z"/>
<path fill="#353234" opacity="1.000000" stroke="none" 
	d="
M181.049667,284.374451 
	C188.140686,288.538788 193.339249,294.632660 196.981598,302.457153 
	C193.610519,302.970062 190.222641,303.126038 186.320480,303.305695 
	C186.320480,307.371796 186.320480,311.236206 186.199097,315.550171 
	C185.270889,315.872345 184.108261,316.044861 183.710327,315.572784 
	C177.093430,307.722931 170.572357,299.792267 164.014404,291.527344 
	C166.452652,291.120575 168.951248,290.743958 171.350952,291.078003 
	C176.553726,291.802246 180.142044,290.498535 181.049667,284.374451 
z"/>
<path fill="#353234" opacity="1.000000" stroke="none" 
	d="
M212.610382,319.320892 
	C214.572464,321.886688 216.059479,324.417053 217.735580,326.815277 
	C219.728226,329.666443 221.883362,332.404053 223.983429,335.549866 
	C217.898254,335.908844 211.797745,335.908844 205.111084,335.908844 
	C205.111084,331.098877 205.111084,326.502686 205.349243,321.245789 
	C205.726044,320.262329 205.864685,319.939545 206.003326,319.616760 
	C208.075226,319.486816 210.147141,319.356903 212.610382,319.320892 
z"/>
<path fill="#3A3739" opacity="1.000000" stroke="none" 
	d="
M205.705963,319.710999 
	C205.864685,319.939545 205.726044,320.262329 205.408844,320.780853 
	C205.289719,320.586151 205.349152,320.195709 205.705963,319.710999 
z"/>
<path fill="#757374" opacity="1.000000" stroke="none" 
	d="
M165.950195,303.023499 
	C161.049530,303.299042 155.893402,303.310059 150.262268,303.246246 
	C155.089752,303.033936 160.392242,302.896423 165.950195,303.023499 
z"/>
<path fill="#3E3B3D" opacity="1.000000" stroke="none" 
	d="
M195.229462,242.321136 
	C196.404388,239.369049 197.449875,236.782822 198.495377,234.196579 
	C198.901627,234.065094 199.307877,233.933594 199.714142,233.802094 
	C203.061188,242.535324 206.408234,251.268539 210.029068,260.716125 
	C202.506668,260.716125 195.906693,260.716125 188.590805,260.716125 
	C190.869247,254.405319 192.984634,248.546158 195.229462,242.321136 
z"/>
<path fill="#3A3739" opacity="1.000000" stroke="none" 
	d="
M120.066422,126.073456 
	C125.471497,121.197914 131.723938,120.127853 138.251938,119.903603 
	C142.826569,136.747208 133.425446,148.363388 115.484306,147.691864 
	C114.467209,140.089417 114.161789,132.690826 120.066422,126.073456 
z"/>
<path fill="#434142" opacity="1.000000" stroke="none" 
	d="
M285.890625,81.142761 
	C285.073425,82.683487 284.380371,84.587227 283.354980,84.787270 
	C268.180176,87.747627 256.862701,77.175873 258.296448,61.574295 
	C274.001984,57.702473 282.588562,63.664612 285.890625,81.142761 
z"/>
<path fill="#434142" opacity="1.000000" stroke="none" 
	d="
M237.295715,22.681168 
	C240.977402,13.932322 248.000549,9.991501 259.223541,10.068280 
	C264.567993,25.523180 255.420807,38.703560 236.150818,37.527115 
	C236.490204,32.710911 236.830231,27.885626 237.295715,22.681168 
z"/>
<path fill="#3F3B3C" opacity="1.000000" stroke="none" 
	d="
M166.297852,79.758110 
	C167.173721,83.049065 167.720230,86.028313 168.792770,88.804314 
	C169.261826,90.018364 170.806702,90.816772 171.863037,91.803917 
	C172.295975,90.376320 173.341736,88.813072 173.060730,87.543503 
	C171.443146,80.235527 169.502167,72.999397 167.694412,65.733040 
	C167.345123,64.329079 167.100525,62.899071 166.731369,61.111729 
	C173.236023,61.111729 179.300308,61.167702 185.361969,61.066952 
	C186.655090,61.045456 188.093079,60.710621 189.183502,60.053894 
	C190.282913,59.391754 191.032928,58.149490 191.936020,57.161392 
	C190.603958,56.650681 189.109909,55.465023 187.966293,55.739491 
	C180.879395,57.440353 173.905304,57.761013 166.036453,55.170158 
	C169.367157,49.789223 172.473083,44.772373 175.577805,39.754772 
	C176.191238,38.763401 177.081421,37.837006 177.341156,36.759441 
	C177.680847,35.350227 177.520401,33.820461 177.575104,32.342560 
	C176.145874,33.053947 174.158051,33.388893 173.381973,34.540459 
	C169.574097,40.190712 166.088470,46.058128 162.197144,52.318367 
	C157.104462,48.198719 155.002853,42.711891 153.168274,37.081535 
	C152.705917,35.662556 152.722290,34.053459 152.094391,32.733543 
	C151.607285,31.709515 150.459564,30.999729 149.605484,30.150265 
	C148.977600,31.315210 147.562607,32.737274 147.845917,33.604557 
	C150.182327,40.756859 152.833725,47.806271 155.466614,55.100018 
	C148.523041,56.556515 140.438431,58.254005 132.352325,59.944454 
	C131.863922,60.046551 131.236496,59.927559 130.891510,60.193695 
	C129.511414,61.258350 128.217346,62.434502 126.891449,63.569401 
	C128.472504,63.997086 130.153976,65.006371 131.617584,64.753693 
	C138.666687,63.536743 145.654678,61.967590 152.670517,60.554108 
	C153.923981,60.301575 155.206558,60.193607 156.667068,59.992546 
	C147.562820,81.316872 126.726799,84.414864 109.676018,66.930984 
	C114.778847,57.280361 120.749382,48.421673 132.228195,45.337894 
	C135.487747,44.462215 135.849716,43.035053 135.277954,39.957512 
	C133.290588,29.260323 137.963547,20.457594 144.100143,12.299946 
	C144.692932,11.511913 147.266220,11.264089 148.226349,11.868198 
	C152.153503,14.339150 155.999527,17.020464 159.505585,20.052057 
	C162.056702,22.257940 163.704651,22.293337 166.845047,20.651720 
	C172.799011,17.539326 179.298782,15.444227 185.639771,13.111208 
	C188.488007,12.063265 190.139999,13.558547 190.373032,16.418541 
	C190.923416,23.173714 191.950851,29.971298 191.590225,36.687561 
	C191.388397,40.446495 192.456238,41.453972 195.479095,42.746326 
	C200.911316,45.068756 206.072479,48.025131 211.679611,50.886406 
	C205.865067,61.665462 199.755035,70.509033 188.203110,74.024475 
	C186.942673,74.408051 185.208969,76.859329 185.445648,77.982620 
	C187.986923,90.043694 182.165649,99.183540 175.901642,108.226135 
	C153.063889,100.998268 147.160782,82.206009 161.851547,62.337383 
	C163.385544,68.368607 164.783829,73.866234 166.297852,79.758110 
z"/>
<path fill="#3F3B3C" opacity="1.000000" stroke="none" 
	d="
M176.119537,172.121048 
	C177.388321,176.873596 178.509033,181.275452 179.638062,185.709991 
	C160.045380,189.543396 151.002731,180.310104 151.101456,163.781158 
	C160.408554,159.717255 170.483276,162.953629 176.119537,172.121048 
z"/>
<path fill="#413D3D" opacity="1.000000" stroke="none" 
	d="
M282.165070,159.999588 
	C282.482513,161.403549 282.799957,162.807526 283.460419,165.728546 
	C275.450439,166.252655 268.057922,167.426208 260.770020,166.961044 
	C256.214020,166.670242 254.434250,167.469025 252.866379,171.749435 
	C251.016357,176.800217 247.916214,181.393066 245.144562,186.584320 
	C234.826904,181.085129 226.142929,175.291763 222.843842,164.101456 
	C222.222778,161.994873 221.881378,159.676773 218.709854,160.410736 
	C206.735580,163.181915 197.513489,157.381577 188.455093,151.010071 
	C195.474167,133.612335 213.174973,117.987213 233.338654,137.435547 
	C225.062241,139.617294 217.073898,141.580399 209.196671,143.917953 
	C207.588150,144.395294 206.396820,146.278580 205.013168,147.513763 
	C206.772110,147.767487 208.650543,148.551010 210.269913,148.185822 
	C218.531662,146.322662 226.726471,144.162674 235.072632,142.074524 
	C235.072632,148.284256 234.718567,154.335480 235.249420,160.308075 
	C235.457520,162.649338 238.206329,166.897354 238.847565,166.725754 
	C243.436569,165.497559 239.811295,162.245407 239.870865,159.831665 
	C240.015320,153.977310 239.917847,148.116959 239.917847,142.259033 
	C240.468643,142.047714 241.019424,141.836395 241.570221,141.625076 
	C246.259384,144.602890 250.948685,147.580475 255.637573,150.558685 
	C256.761658,151.272629 257.802948,152.314346 259.028473,152.620636 
	C260.527832,152.995377 262.181030,152.754639 263.767700,152.780014 
	C262.959778,151.373550 262.487854,149.484070 261.284088,148.646698 
	C256.779816,145.513443 252.029953,142.734146 247.386673,139.799210 
	C246.288971,139.105377 245.247711,138.322281 243.986771,137.445557 
	C248.538239,132.625916 254.027206,130.103241 260.576721,129.031601 
	C265.448273,136.561005 269.699921,143.853394 274.360260,150.874512 
	C276.557404,154.184662 279.538940,156.974167 282.165070,159.999588 
z"/>
<path fill="#423E3F" opacity="1.000000" stroke="none" 
	d="
M282.175903,159.595856 
	C279.538940,156.974167 276.557404,154.184662 274.360260,150.874512 
	C269.699921,143.853394 265.448273,136.561005 260.968140,128.997528 
	C261.531219,128.409119 262.298035,128.364685 262.750793,127.964737 
	C263.845428,126.997810 264.793518,125.864967 265.800659,124.798996 
	C264.398926,124.282768 262.705139,122.984154 261.643951,123.380257 
	C255.778961,125.569443 250.062195,128.157928 244.310867,130.647079 
	C243.445145,131.021759 242.664749,131.593628 241.380157,132.346725 
	C239.531342,123.440666 237.899460,115.005943 235.936707,106.648941 
	C235.579651,105.128685 233.870224,103.926056 232.785126,102.576797 
	C232.349960,104.290779 231.306946,106.109901 231.582169,107.701012 
	C232.962265,115.679771 234.687332,123.598869 236.357422,131.866898 
	C219.742401,125.858894 213.970825,112.927452 221.652924,97.606651 
	C229.056931,82.840431 227.937180,82.972237 240.754761,93.542946 
	C245.222763,97.227722 247.521973,103.487633 251.058853,108.393280 
	C251.980774,109.671997 254.000763,111.258965 255.229004,111.046089 
	C267.004181,109.005188 276.142578,114.366417 285.998444,121.357040 
	C282.354004,126.258682 279.096649,130.988510 275.451935,135.398193 
	C273.557434,137.690323 273.537231,139.135468 274.969360,141.876907 
	C277.853912,147.398544 279.833710,153.392822 282.175903,159.595856 
z"/>
<path fill="#3F3C3D" opacity="1.000000" stroke="none" 
	d="
M214.311890,117.718384 
	C214.348068,117.916687 214.186340,118.297211 213.877350,118.477600 
	C213.858047,118.151848 213.986038,118.026222 214.311890,117.718384 
z"/>
</svg>